<?xml version="1.0" standalone="no"?>
<!DOCTYPE svg PUBLIC "-//W3C//DTD SVG 20010904//EN"
 "http://www.w3.org/TR/2001/REC-SVG-20010904/DTD/svg10.dtd">
<svg version="1.0" xmlns="http://www.w3.org/2000/svg"
 width="600.000000pt" height="368.000000pt" viewBox="0 0 600.000000 368.000000"
 preserveAspectRatio="xMidYMid meet">

<g transform="translate(0.000000,368.000000) scale(0.100000,-0.100000)"
fill="#ffffff" stroke="none">
<path d="M715 3601 c-11 -5 -27 -17 -36 -27 -32 -37 -32 -60 6 -154 54 -136
68 -213 62 -360 -6 -153 -33 -245 -108 -370 -117 -193 -156 -345 -146 -565 7
-130 23 -211 64 -319 50 -132 119 -172 184 -107 37 37 37 61 -1 149 -47 112
-63 192 -62 327 1 180 25 261 133 441 55 92 103 225 120 334 26 169 -5 388
-78 552 -38 85 -87 120 -138 99z"/>
<path d="M1694 3600 c-29 -11 -64 -58 -64 -83 0 -12 16 -58 35 -104 47 -109
65 -196 65 -324 0 -131 -24 -231 -80 -335 -22 -41 -58 -107 -79 -147 -22 -40
-52 -113 -67 -162 -26 -84 -28 -102 -28 -270 -1 -195 6 -232 66 -387 33 -87
63 -118 115 -118 40 0 93 45 93 80 0 12 -13 52 -30 90 -49 112 -64 190 -64
335 1 182 30 279 134 444 105 167 149 391 119 608 -18 137 -82 317 -125 355
-25 21 -63 29 -90 18z"/>
<path d="M2660 3593 c-26 -14 -37 -27 -44 -55 -8 -32 -5 -47 22 -105 45 -100
62 -175 69 -299 9 -180 -23 -304 -119 -455 -100 -158 -141 -307 -141 -509 0
-105 4 -155 21 -223 29 -117 78 -232 109 -257 36 -28 88 -26 118 4 39 39 40
66 6 144 -46 106 -63 176 -68 298 -9 178 24 303 119 453 80 127 122 251 139
415 16 157 -7 312 -72 476 -46 116 -90 148 -159 113z"/>
<path d="M110 1212 c-108 -54 -104 -195 7 -246 l42 -20 3 -266 3 -266 38 -76
c62 -127 174 -212 311 -237 41 -8 403 -11 1150 -11 1188 0 1173 0 1277 56 116
64 199 185 219 320 10 74 14 722 4 748 -6 15 -148 16 -1513 16 -1414 0 -1508
-1 -1541 -18z m452 -459 c3 -179 6 -204 27 -256 43 -109 143 -206 252 -244 27
-10 49 -21 49 -25 0 -13 -172 -9 -225 6 -175 47 -300 185 -325 361 -11 79 -14
338 -3 348 3 4 55 7 114 7 l107 0 4 -197z"/>
<path d="M3295 1218 c-3 -7 -4 -164 -3 -348 l3 -335 75 1 c114 2 191 47 245
146 l30 53 0 245 0 245 -173 3 c-133 2 -174 0 -177 -10z"/>
<path d="M3717 1223 c-11 -11 -8 -343 3 -343 28 0 1562 -90 1605 -94 28 -3
139 -12 248 -19 166 -12 206 -12 249 0 180 46 233 269 96 400 -68 66 -13 63
-1158 63 -570 0 -1040 -3 -1043 -7z"/>
</g>
</svg>
