<?xml version="1.0" standalone="no"?>
<!DOCTYPE svg PUBLIC "-//W3C//DTD SVG 20010904//EN"
 "http://www.w3.org/TR/2001/REC-SVG-20010904/DTD/svg10.dtd">
<svg version="1.0" xmlns="http://www.w3.org/2000/svg"
 width="601.000000pt" height="512.000000pt" viewBox="0 0 601.000000 512.000000"
 preserveAspectRatio="xMidYMid meet">

<g transform="translate(0.000000,512.000000) scale(0.100000,-0.100000)"
fill="#ffffff" stroke="none">
<path d="M730 5019 c-32 -13 -59 -48 -60 -78 0 -13 16 -64 36 -114 49 -122 67
-227 60 -352 -8 -158 -40 -250 -145 -423 -90 -148 -134 -368 -113 -563 19
-166 82 -347 134 -383 34 -24 85 -20 113 8 40 40 40 66 2 152 -48 111 -67 203
-67 331 0 163 35 278 128 427 43 68 83 162 110 258 27 98 23 385 -6 492 -25
91 -77 209 -101 229 -23 20 -62 27 -91 16z"/>
<path d="M1702 5015 c-60 -26 -66 -70 -23 -171 37 -88 48 -129 61 -238 22
-178 -15 -344 -114 -507 -110 -181 -153 -345 -143 -549 9 -181 73 -392 134
-440 35 -28 84 -26 117 5 34 31 34 75 1 146 -13 30 -34 95 -46 144 -18 76 -20
110 -16 220 5 152 34 254 99 358 58 92 106 198 130 285 29 103 31 371 5 475
-21 82 -72 214 -95 244 -24 32 -71 44 -110 28z"/>
<path d="M2695 5023 c-30 -7 -62 -41 -68 -71 -3 -17 5 -51 24 -95 52 -117 70
-208 70 -342 0 -144 -22 -244 -78 -343 -151 -273 -178 -361 -177 -587 1 -129
4 -164 26 -245 48 -175 96 -250 160 -250 40 0 88 48 88 88 0 16 -13 58 -29 93
-43 95 -61 192 -61 321 0 181 26 271 124 432 89 147 126 269 133 447 8 176
-20 321 -89 467 -24 50 -38 67 -64 78 -18 8 -35 13 -36 13 -2 -1 -12 -3 -23
-6z"/>
<path d="M123 2631 c-49 -23 -73 -62 -73 -121 0 -60 24 -98 76 -121 l44 -20 0
-223 c0 -123 5 -247 10 -277 33 -175 163 -307 337 -344 100 -21 2215 -22 2314
-1 143 31 243 110 307 244 l37 77 0 400 0 400 -1505 2 c-1460 3 -1506 2 -1547
-16z m447 -420 c0 -87 5 -182 10 -211 29 -151 150 -290 287 -331 23 -6 40 -16
37 -20 -9 -15 -166 -10 -229 6 -127 34 -230 120 -288 242 l-32 68 -3 203 -3
202 110 0 111 0 0 -159z"/>
<path d="M3306 2634 c-10 -25 -7 -657 3 -673 11 -18 131 -10 184 12 51 22 112
81 138 135 23 45 24 56 24 292 l0 245 -171 3 c-150 2 -172 0 -178 -14z"/>
<path d="M3737 2643 c-4 -3 -7 -82 -7 -175 l0 -168 24 0 c13 0 172 -9 353 -20
1272 -77 1700 -99 1734 -90 60 17 118 66 145 123 45 97 26 195 -52 269 -76 71
-18 68 -1163 68 -565 0 -1031 -3 -1034 -7z"/>
<path d="M4768 1160 c-49 -54 -88 -105 -88 -113 0 -18 46 -57 67 -57 12 0 193
172 193 184 0 4 -52 58 -71 72 -11 10 -30 -7 -101 -86z"/>
<path d="M4140 1223 c-14 -9 -28 -22 -32 -27 -4 -6 -8 -199 -8 -429 0 -474 2
-489 71 -551 38 -35 103 -60 142 -54 24 3 40 50 35 101 -2 24 -9 33 -37 42
-61 20 -60 17 -61 491 0 384 -2 433 -16 438 -29 11 -69 6 -94 -11z"/>
<path d="M3532 1147 c-45 -45 -82 -89 -82 -97 0 -8 11 -28 24 -45 l23 -29 31
24 c55 45 95 75 103 78 5 2 35 -19 67 -47 32 -28 63 -51 69 -51 14 0 53 44 53
60 0 20 -171 190 -190 190 -8 0 -52 -37 -98 -83z"/>
<path d="M307 1144 c-4 -4 -7 -219 -7 -479 0 -353 3 -474 12 -483 14 -14 544
-17 566 -3 9 5 12 26 10 67 l-3 59 -210 5 -210 5 -5 415 -5 415 -70 3 c-39 1
-74 0 -78 -4z"/>
<path d="M1752 1134 l-22 -15 0 -464 c0 -449 1 -465 19 -475 28 -14 106 -12
120 3 6 8 12 77 13 178 l3 164 131 6 c170 8 245 32 319 104 33 32 55 65 63 91
15 52 16 185 1 235 -23 76 -90 132 -211 174 -63 22 -404 22 -436 -1z m377
-125 c68 -14 117 -63 126 -124 10 -61 -1 -108 -32 -145 -44 -53 -76 -63 -215
-68 l-128 -5 0 170 c0 93 3 173 7 176 10 11 187 8 242 -4z"/>
<path d="M1140 923 c-76 -12 -94 -34 -88 -109 3 -38 4 -39 38 -36 19 2 43 8
52 13 29 16 124 10 171 -10 35 -15 47 -27 61 -60 9 -23 16 -51 16 -64 0 -21
-3 -22 -117 -22 -106 -1 -124 -3 -173 -26 -63 -30 -79 -46 -115 -112 -44 -84
-31 -184 32 -250 60 -61 105 -79 208 -84 118 -6 281 17 297 41 4 6 8 123 8
260 0 300 -7 333 -82 401 -30 26 -64 47 -92 54 -43 10 -163 13 -216 4z m234
-436 c14 -10 16 -26 14 -97 l-3 -85 -112 0 c-104 0 -113 2 -137 24 -20 19 -26
34 -26 66 0 50 21 82 63 94 49 14 180 13 201 -2z"/>
<path d="M2745 921 c-43 -11 -116 -55 -146 -88 -69 -75 -103 -169 -103 -288 0
-163 64 -276 199 -352 44 -25 60 -28 140 -28 78 0 97 4 141 27 72 38 160 135
179 200 31 106 15 306 -31 376 -29 44 -89 99 -137 127 -39 22 -63 28 -130 31
-45 2 -96 0 -112 -5z m168 -142 c50 -26 61 -38 93 -107 31 -67 33 -163 4 -241
-36 -98 -89 -135 -184 -129 -79 5 -116 30 -153 106 -24 49 -28 69 -28 142 1
95 18 140 75 195 61 58 123 69 193 34z"/>
<path d="M3554 920 c-99 -23 -207 -134 -235 -240 -29 -109 -18 -250 27 -341
21 -42 102 -118 158 -147 47 -24 60 -26 171 -26 99 0 129 4 170 21 37 16 49
26 47 40 -16 102 -12 95 -51 89 -91 -14 -208 -18 -249 -7 -55 15 -100 63 -122
128 -9 29 -15 55 -12 58 3 3 110 5 237 5 196 0 235 2 245 15 9 11 11 35 6 83
-22 220 -128 334 -305 331 -31 -1 -70 -4 -87 -9z m152 -142 c34 -16 51 -31 66
-63 36 -73 31 -75 -152 -75 l-161 0 7 23 c15 49 23 63 48 87 55 51 123 61 192
28z"/>
<path d="M4695 921 c-80 -22 -159 -90 -205 -179 -26 -48 -32 -74 -37 -148 -7
-109 9 -212 41 -262 77 -122 198 -179 355 -169 47 3 109 14 136 25 46 17 50
21 48 51 0 17 -4 43 -8 58 -6 24 -8 25 -48 17 -23 -5 -89 -9 -147 -9 -88 0
-110 3 -135 20 -47 31 -76 76 -90 143 l-7 32 235 0 c198 0 237 2 247 15 20 24
5 159 -25 236 -26 66 -79 125 -139 156 -34 18 -175 27 -221 14z m157 -142 c46
-22 83 -79 76 -115 -3 -17 -16 -19 -152 -22 -86 -1 -154 2 -159 7 -25 25 32
107 93 134 49 22 93 20 142 -4z"/>
<path d="M5450 917 c-167 -57 -259 -235 -230 -445 27 -199 160 -311 369 -312
63 0 174 24 199 43 16 13 15 78 -2 102 -12 17 -18 17 -74 5 -83 -17 -209 -9
-253 16 -37 21 -89 110 -89 151 l0 23 229 0 c192 0 231 2 241 15 9 11 11 42 8
108 -10 195 -104 295 -283 303 -46 2 -95 -2 -115 -9z m151 -130 c49 -17 63
-30 84 -76 31 -69 26 -71 -149 -71 -88 0 -157 4 -161 10 -9 14 19 72 46 96 58
52 113 65 180 41z"/>
</g>
</svg>
